<?xml version="1.0" standalone="no"?><!DOCTYPE svg PUBLIC "-//W3C//DTD SVG 1.1//EN" "http://www.w3.org/Graphics/SVG/1.1/DTD/svg11.dtd"><svg t="1625812247825" class="icon" viewBox="0 0 1024 1024" version="1.1" xmlns="http://www.w3.org/2000/svg" p-id="4867" xmlns:xlink="http://www.w3.org/1999/xlink" width="200" height="200"><defs><style type="text/css"></style></defs><path d="M806.4 849.066667H217.6c-72.533333 0-132.266667-59.733333-132.266667-132.266667V307.2c0-72.533333 59.733333-132.266667 132.266667-132.266667h588.8c72.533333 0 132.266667 59.733333 132.266667 132.266667v405.333333c0 76.8-59.733333 136.533333-132.266667 136.533334zM217.6 247.466667c-34.133333 0-64 29.866667-64 64v405.333333c0 34.133333 29.866667 64 64 64h588.8c34.133333 0 64-29.866667 64-64V307.2c0-34.133333-29.866667-64-64-64H217.6z" p-id="4868" fill="#2c2c2c"></path><path d="M529.066667 558.933333c-21.333333 0-42.666667-8.533333-59.733334-21.333333L157.866667 277.333333c-12.8-12.8-17.066667-34.133333-4.266667-51.2 12.8-12.8 34.133333-17.066667 51.2-4.266666l311.466667 260.266666c8.533333 8.533333 21.333333 8.533333 29.866666 0l302.933334-256c17.066667-12.8 38.4-12.8 51.2 4.266667 12.8 12.8 12.8 38.4-4.266667 51.2l-302.933333 256c-21.333333 17.066667-42.666667 21.333333-64 21.333333z" p-id="4869" fill="#2c2c2c"></path></svg>