<?xml version="1.0" standalone="no"?><!DOCTYPE svg PUBLIC "-//W3C//DTD SVG 1.1//EN" "http://www.w3.org/Graphics/SVG/1.1/DTD/svg11.dtd"><svg t="1625811129853" class="icon" viewBox="0 0 1024 1024" version="1.1" xmlns="http://www.w3.org/2000/svg" p-id="2430" xmlns:xlink="http://www.w3.org/1999/xlink" width="200" height="200"><defs><style type="text/css"></style></defs><path d="M863.9 484.2c-0.6 0-1.2-0.1-1.8-0.1-10 0-19 6.5-22.4 16.3-2 5.8-2 11.8-2 17.7v89.1c0 72 0 146.4-0.1 219.6 0 31.4-22.9 55.2-53.3 55.2-105.4 0.1-212.7 0.1-318.9 0.1-106.6 0-215.2 0-322.7-0.1-29.8 0-53.1-23.3-53.1-53-0.1-137.6-0.1-277.5-0.1-412.8V222.6c0-15.8 6.3-29 19.3-40.3 13.7-11.9 30.6-13.5 45.5-13.5H608.1c3 0 6.2 0 9.3-0.3 8.6-0.7 14.9-5.4 18.5-13.9 3.2-7.6 2.7-15.2-1.4-21.5-4.9-7.3-13.9-11.5-24.7-11.5H583c-74.7 0-149.4-0.1-224.1-0.1-80.8 0-151.7 0-216.6 0.1-43.9 0.1-81.6 27.5-96 69.9-0.4 1.1-0.7 2.3-1 3.5-0.9 3.3-1.7 6.3-4 8.9l-0.1 0.1v644.3l0.1 0.1c1.5 2 1.6 4.4 1.7 6.8 0 0.5 0 1.1 0.1 1.6 2.3 30 20.7 47.9 47.7 65.5 6.7 4.4 14.7 5.3 22.5 6.2 4.2 0.5 8.5 1 12.6 2h676.2c0.7-0.3 1.3-0.6 2-0.9 1.4-0.6 2.8-1.3 4.2-1.7 51.3-15.6 78.4-52.2 78.4-105.8V517.2v-2.7c0-3.2 0.1-6.6-0.4-9.8-1.9-10.9-11.1-19.6-22.4-20.5z" fill="#ffffff" p-id="2431"></path><path d="M959.4 167.2c-41.8-18.2-84.2-36.9-125.3-54.9-16.8-7.4-33.7-14.8-50.6-22.2h-7.2l-0.1 0.1c-1.8 1.4-3.8 2.4-5.8 3.4-3.3 1.7-6.7 3.4-9.1 6.7-4.7 6.4-6.3 13.6-4.5 20.4 2 7.7 8.1 14.1 17.2 18.2 23.1 10.3 46.7 20.6 69.5 30.6 15.1 6.6 30.7 13.4 46 20.2 0.7 0.3 1.5 0.6 2.2 0.8 2.2 0.7 4.5 1.4 5.7 4-2.2 0.4-4.5 0.8-6.7 1.1-5.2 0.9-10.2 1.7-15.2 2.7-57.4 11.6-109.7 40.4-164.5 90.5-54 49.4-101.9 110.8-146.3 187.7-10.7 18.6-19.6 35.3-27.2 51.2-5.9 12.3-1.1 25.2 11.5 31.3 3.5 1.7 7.1 2.5 10.6 2.5 8.1 0 15.6-4.5 20.5-12.2 1.5-2.3 2.7-4.9 3.9-7.3 0.6-1.3 1.2-2.5 1.9-3.8 50.3-95.4 103.1-165.7 166.3-221.3 51.5-45.3 100.7-69.1 154.8-74.7 3.3-0.3 5.8-0.6 7.7-0.6 2.4 0 3.8 0.4 4.4 1.2 1.1 1.5 0.4 4.7-1.4 11.1-4.3 14.6-8.7 29.5-12.9 43.9-6.7 22.8-13.7 46.3-20.3 69.6-2.7 9.5-1.5 18.6 3.3 25 4.2 5.6 10.8 8.7 18.4 8.7 1.9 0 3.9-0.2 5.9-0.6 12.1-2.3 16.4-11.9 19.1-20.9 8.5-28.9 16.9-57.7 25.4-86.5 8-27.1 16-54.3 23.9-81.4 7.7-26 4.2-33.4-21.1-44.5z" fill="#ffffff" p-id="2432"></path></svg>