<?xml version="1.0" standalone="no"?><!DOCTYPE svg PUBLIC "-//W3C//DTD SVG 1.1//EN" "http://www.w3.org/Graphics/SVG/1.1/DTD/svg11.dtd"><svg t="1627544566081" class="icon" viewBox="0 0 1024 1024" version="1.1" xmlns="http://www.w3.org/2000/svg" p-id="4094" xmlns:xlink="http://www.w3.org/1999/xlink" width="200" height="200"><defs><style type="text/css">@font-face { font-family: feedback-iconfont; src: url("//at.alicdn.com/t/font_1031158_1uhr8ri0pk5.eot?#iefix") format("embedded-opentype"), url("//at.alicdn.com/t/font_1031158_1uhr8ri0pk5.woff2") format("woff2"), url("//at.alicdn.com/t/font_1031158_1uhr8ri0pk5.woff") format("woff"), url("//at.alicdn.com/t/font_1031158_1uhr8ri0pk5.ttf") format("truetype"), url("//at.alicdn.com/t/font_1031158_1uhr8ri0pk5.svg#iconfont") format("svg"); }
</style></defs><path d="M334.186667 554.666667c74.666667 0 135.146667 60.501333 135.146666 135.146666v199.04a135.146667 135.146667 0 0 1-135.146666 135.168h-199.04A135.146667 135.146667 0 0 1 0 888.874667v-199.061334A135.125333 135.125333 0 0 1 135.146667 554.666667z m554.666666 0c74.666667 0 135.146667 60.501333 135.146667 135.146666v199.04a135.146667 135.146667 0 0 1-135.146667 135.168h-199.04A135.146667 135.146667 0 0 1 554.666667 888.874667v-199.061334A135.125333 135.125333 0 0 1 689.813333 554.666667z m-554.666666 85.333333h-199.04A49.792 49.792 0 0 0 85.333333 689.834667v199.04a49.813333 49.813333 0 0 0 49.813334 49.834666h199.04A49.813333 49.813333 0 0 0 384 888.874667v-199.061334A49.792 49.792 0 0 0 334.186667 640z m554.666666 0h-199.04A49.792 49.792 0 0 0 640 689.834667v199.04a49.813333 49.813333 0 0 0 49.813333 49.834666h199.04A49.813333 49.813333 0 0 0 938.666667 888.874667v-199.061334A49.792 49.792 0 0 0 888.853333 640z m-554.666666-640C408.853333 0 469.333333 60.522667 469.333333 135.168v199.04a135.146667 135.146667 0 0 1-135.146666 135.168h-199.04A135.146667 135.146667 0 0 1 0 334.208V135.146667A135.125333 135.125333 0 0 1 135.146667 0z m554.666666 0C963.52 0 1024 60.522667 1024 135.168v199.04a135.146667 135.146667 0 0 1-135.146667 135.168h-199.04A135.146667 135.146667 0 0 1 554.666667 334.208V135.146667A135.125333 135.125333 0 0 1 689.813333 0z m-554.666666 85.333333h-199.04A49.792 49.792 0 0 0 85.333333 135.168v199.04a49.813333 49.813333 0 0 0 49.813334 49.834667h199.04A49.813333 49.813333 0 0 0 384 334.208V135.146667A49.792 49.792 0 0 0 334.186667 85.333333z m554.666666 0h-199.04A49.792 49.792 0 0 0 640 135.168v199.04a49.813333 49.813333 0 0 0 49.813333 49.834667h199.04A49.813333 49.813333 0 0 0 938.666667 334.208V135.146667A49.792 49.792 0 0 0 888.853333 85.333333z" p-id="4095" fill="#8a8a8a"></path></svg>