<?xml version="1.0" standalone="no"?><!DOCTYPE svg PUBLIC "-//W3C//DTD SVG 1.1//EN" "http://www.w3.org/Graphics/SVG/1.1/DTD/svg11.dtd"><svg t="1627544533721" class="icon" viewBox="0 0 1024 1024" version="1.1" xmlns="http://www.w3.org/2000/svg" p-id="2398" xmlns:xlink="http://www.w3.org/1999/xlink" width="200" height="200"><defs><style type="text/css">@font-face { font-family: feedback-iconfont; src: url("//at.alicdn.com/t/font_1031158_1uhr8ri0pk5.eot?#iefix") format("embedded-opentype"), url("//at.alicdn.com/t/font_1031158_1uhr8ri0pk5.woff2") format("woff2"), url("//at.alicdn.com/t/font_1031158_1uhr8ri0pk5.woff") format("woff"), url("//at.alicdn.com/t/font_1031158_1uhr8ri0pk5.ttf") format("truetype"), url("//at.alicdn.com/t/font_1031158_1uhr8ri0pk5.svg#iconfont") format("svg"); }
</style></defs><path d="M865.28 260.608H187.904c-18.432 0-33.28-14.848-33.28-33.28s14.848-33.28 33.28-33.28H865.28c18.432 0 33.28 14.848 33.28 33.28s-14.848 33.28-33.28 33.28zM865.28 527.36H187.904c-18.432 0-33.28-14.848-33.28-33.28s14.848-33.28 33.28-33.28H865.28c18.432 0 33.28 14.848 33.28 33.28s-14.848 33.28-33.28 33.28zM865.28 821.76H187.904c-18.432 0-33.28-14.848-33.28-33.28s14.848-33.28 33.28-33.28H865.28c18.432 0 33.28 14.848 33.28 33.28s-14.848 33.28-33.28 33.28z" p-id="2399" fill="#8a8a8a"></path></svg>